<?xml version="1.0" standalone="no"?>
<!DOCTYPE svg PUBLIC "-//W3C//DTD SVG 20010904//EN"
 "http://www.w3.org/TR/2001/REC-SVG-20010904/DTD/svg10.dtd">
<svg version="1.0" xmlns="http://www.w3.org/2000/svg"
 width="512.000000pt" height="512.000000pt" viewBox="0 0 512.000000 512.000000"
 preserveAspectRatio="xMidYMid meet">
<metadata>
Created by potrace 1.14, written by Peter Selinger 2001-2017
</metadata>
<g transform="translate(0.000000,512.000000) scale(0.100000,-0.100000)"
fill="#000000" stroke="none">
<path d="M1299 4956 c-100 -35 -147 -85 -219 -228 -29 -57 -101 -197 -160
-313 -59 -115 -138 -270 -175 -342 -37 -73 -70 -133 -74 -134 -3 0 -54 -2
-112 -4 -156 -3 -182 -30 -180 -179 2 -104 2 -105 33 -137 27 -26 45 -32 101
-32 14 0 17 -9 18 -46 4 -324 0 -3134 -5 -3138 -3 -3 -119 -7 -256 -7 -211 -1
-252 -3 -260 -16 -5 -8 -10 -56 -10 -107 0 -70 4 -95 16 -107 14 -14 259 -16
2544 -16 2285 0 2530 2 2544 16 12 12 16 37 16 107 0 51 -5 99 -10 107 -8 13
-48 15 -259 16 -138 0 -253 3 -257 7 -7 7 -11 3177 -4 3178 3 0 21 2 40 5 86
10 111 48 112 169 1 154 -23 178 -186 180 l-109 1 -37 70 c-20 38 -110 213
-200 389 -225 442 -228 446 -263 483 -17 18 -58 46 -91 62 l-59 30 -1231 -1
c-983 0 -1238 -2 -1267 -13z"/>
</g>
</svg>
